<svg width="18" height="18" viewBox="0 0 18 18" fill="none" xmlns="http://www.w3.org/2000/svg">
<g clip-path="url(#clip0_3669_298)">
<path d="M17.3379 10.3457L16.4482 9.3984C16.4621 9.13327 16.4617 8.86759 16.4472 8.6025L17.3379 7.65426C17.5851 7.52892 17.7778 7.3172 17.8793 7.05926C17.9808 6.80131 17.9841 6.51508 17.8886 6.25484L17.2265 4.65621C17.1102 4.40455 16.9055 4.20436 16.6513 4.09365C16.3971 3.98294 16.1111 3.9694 15.8476 4.05562L14.5468 4.01462C14.3696 3.81718 14.1821 3.62909 13.9853 3.45114L13.9443 2.15231C14.0308 1.88907 14.0175 1.60322 13.907 1.34914C13.7964 1.09507 13.5963 0.8905 13.3447 0.774369L11.7441 0.110309C11.4839 0.0153852 11.1979 0.0191107 10.9402 0.120781C10.6825 0.222452 10.471 0.415019 10.3457 0.662069L9.39844 1.55172C9.1333 1.53838 8.86765 1.53872 8.60254 1.55272L7.6543 0.662069C7.52947 0.414352 7.31779 0.221274 7.05967 0.119684C6.80155 0.0180935 6.51506 0.0151053 6.25488 0.111289L4.65625 0.773399C4.40444 0.889569 4.20412 1.09424 4.09338 1.34848C3.98264 1.60273 3.96922 1.8888 4.05566 2.1523L4.01466 3.45308C3.81722 3.63035 3.62913 3.81778 3.45118 4.01461L2.15235 4.05561C1.88909 3.96956 1.60341 3.98308 1.34945 4.09359C1.09549 4.2041 0.890887 4.40393 0.774419 4.65522L0.110349 6.25582C0.0477251 6.41219 0.0237255 6.58136 0.0403849 6.74897C0.0570442 6.91659 0.113871 7.07772 0.206049 7.21871C0.320642 7.39835 0.477147 7.54748 0.662109 7.65328L1.55176 8.60152C1.53794 8.86665 1.53827 9.13233 1.55276 9.39742L0.662139 10.3457C0.41489 10.471 0.222235 10.6827 0.120714 10.9407C0.0191923 11.1986 0.0158636 11.4848 0.111359 11.7451L0.773469 13.3437C0.890316 13.5949 1.09506 13.7947 1.34909 13.9054C1.60311 14.016 1.88884 14.0298 2.15237 13.9443L3.45315 13.9853C3.63042 14.1827 3.81785 14.3708 4.01468 14.5488L4.05568 15.8476C3.96918 16.1108 3.98248 16.3967 4.09304 16.6508C4.2036 16.9049 4.40371 17.1094 4.65529 17.2255L6.25588 17.8896C6.37791 17.9399 6.50864 17.9658 6.64064 17.9658C6.84979 17.959 7.05351 17.8975 7.23141 17.7873C7.4093 17.6771 7.55514 17.5221 7.65432 17.3378L8.60158 16.4482C8.8667 16.4625 9.1324 16.4622 9.39748 16.4472L10.3457 17.3378C10.4705 17.5856 10.6822 17.7787 10.9403 17.8803C11.1984 17.9819 11.485 17.9849 11.7451 17.8886L13.3438 17.2265C13.5956 17.1103 13.7959 16.9056 13.9066 16.6514C14.0174 16.3972 14.0308 16.1111 13.9444 15.8476L13.9854 14.5468C14.1828 14.3695 14.3709 14.1821 14.5488 13.9853L15.8477 13.9443C16.111 14.0297 16.3964 14.0158 16.6502 13.9054C16.904 13.7949 17.1086 13.5955 17.2256 13.3447L17.8897 11.7441C17.9846 11.4838 17.9809 11.1978 17.8793 10.9401C17.7776 10.6824 17.585 10.4709 17.3379 10.3457ZM14.9297 9.59666C14.919 9.70319 14.9312 9.81079 14.9656 9.9122C14.9999 10.0136 15.0556 10.1065 15.1289 10.1845L16.334 11.4687L16.3662 11.5009L15.9766 12.4404C15.9616 12.4394 15.9466 12.4394 15.9317 12.4404L14.1709 12.496C14.0636 12.4994 13.9582 12.5258 13.862 12.5735C13.7658 12.6212 13.681 12.689 13.6133 12.7724C13.3612 13.0799 13.0792 13.3615 12.7715 13.6132C12.6884 13.6809 12.6208 13.7656 12.5733 13.8616C12.5258 13.9577 12.4995 14.0628 12.4961 14.1699L12.4404 15.9316V15.9765L11.501 16.3662L11.4688 16.3339L10.1836 15.1279C10.1058 15.0542 10.013 14.9983 9.91148 14.9639C9.81 14.9295 9.70228 14.9175 9.59572 14.9287C9.19923 14.9676 8.7999 14.9679 8.40334 14.9297C8.29682 14.9192 8.18929 14.9315 8.08791 14.9659C7.98654 15.0002 7.89365 15.0558 7.81545 15.1289L6.53125 16.334L6.49902 16.3662L5.55957 15.9765V15.9316L5.50391 14.1709C5.50057 14.0635 5.47416 13.9582 5.42647 13.8619C5.37878 13.7657 5.31093 13.6809 5.22754 13.6132C4.92011 13.3611 4.63845 13.0792 4.38672 12.7714C4.31906 12.6884 4.23435 12.6208 4.13832 12.5733C4.04228 12.5258 3.93717 12.4994 3.83008 12.496L2.06836 12.4404C2.0534 12.4394 2.0384 12.4394 2.02344 12.4404L1.63379 11.501L1.66602 11.4687L2.87302 10.1836C2.94651 10.1052 3.00233 10.012 3.0367 9.91029C3.07107 9.80853 3.08319 9.70058 3.07224 9.59373C3.03187 9.19861 3.03153 8.80043 3.07124 8.40525C3.08227 8.2984 3.07019 8.19042 3.03582 8.08865C3.00144 7.98688 2.94558 7.89369 2.87202 7.81541L1.666 6.53121L1.63379 6.49896L2.02344 5.55951C2.03711 5.55851 2.05371 5.55951 2.06836 5.55951L3.8291 5.50387C3.93644 5.50053 4.0418 5.47412 4.13802 5.42643C4.23424 5.37874 4.31906 5.31089 4.38672 5.2275C4.63881 4.92007 4.92079 4.63841 5.22852 4.38668C5.3116 4.31902 5.37918 4.23431 5.42669 4.13828C5.4742 4.04225 5.50053 3.93713 5.50391 3.83004L5.55957 2.06832V2.0234L6.499 1.63375L6.53123 1.66598L7.81639 2.87298C7.8945 2.94679 7.98767 3.00282 8.08948 3.03721C8.1913 3.0716 8.29936 3.08353 8.40623 3.0722C8.80137 3.03232 9.1995 3.03198 9.59471 3.0712C9.70161 3.08316 9.80984 3.07151 9.91175 3.03709C10.0137 3.00267 10.1068 2.94631 10.1845 2.87198L11.4687 1.66598L11.501 1.63375L12.4404 2.0234V2.06832L12.4961 3.82906C12.4994 3.9364 12.5258 4.04176 12.5735 4.13798C12.6212 4.2342 12.689 4.31902 12.7724 4.38668C13.0799 4.63877 13.3615 4.92075 13.6133 5.22848C13.6809 5.31156 13.7656 5.37914 13.8617 5.42665C13.9577 5.47416 14.0628 5.50049 14.1699 5.50387L15.9316 5.55953C15.9463 5.55953 15.9619 5.55853 15.9765 5.55953L16.3662 6.49898L16.334 6.53121L15.127 7.81637C15.0535 7.8947 14.9977 7.98789 14.9633 8.08965C14.9289 8.19141 14.9168 8.29936 14.9278 8.40621C14.968 8.80197 14.9686 9.20075 14.9297 9.59664V9.59666Z" fill="#5B5B5B"/>
<path d="M9 4.58008C8.12582 4.58008 7.27128 4.8393 6.54442 5.32497C5.81757 5.81064 5.25106 6.50093 4.91653 7.30857C4.58199 8.1162 4.49446 9.0049 4.66501 9.86228C4.83555 10.7197 5.25651 11.5072 5.87464 12.1254C6.49278 12.7435 7.28034 13.1644 8.13772 13.335C8.9951 13.5055 9.8838 13.418 10.6914 13.0835C11.4991 12.7489 12.1894 12.1824 12.675 11.4556C13.1607 10.7287 13.4199 9.87418 13.4199 9C13.4187 7.82813 12.9527 6.70461 12.124 5.87598C11.2954 5.04734 10.1719 4.58129 9 4.58008ZM9 11.9199C8.42249 11.9199 7.85796 11.7487 7.37778 11.4278C6.8976 11.107 6.52335 10.6509 6.30235 10.1174C6.08134 9.58386 6.02352 8.99676 6.13619 8.43035C6.24885 7.86394 6.52695 7.34366 6.9353 6.9353C7.34366 6.52694 7.86394 6.24885 8.43035 6.13618C8.99676 6.02352 9.58386 6.08134 10.1174 6.30234C10.651 6.52335 11.107 6.8976 11.4278 7.37778C11.7487 7.85796 11.9199 8.42249 11.9199 9C11.9191 9.77417 11.6113 10.5164 11.0638 11.0638C10.5164 11.6113 9.77417 11.9191 9 11.9199Z" fill="#5B5B5B"/>
</g>
<defs>
<clipPath id="clip0_3669_298">
<rect width="18" height="18" fill="white"/>
</clipPath>
</defs>
</svg>
