<svg width="18" height="18" viewBox="0 0 18 18" fill="none" xmlns="http://www.w3.org/2000/svg">
<g clip-path="url(#clip0_1188_4888)">
<path d="M15.667 1.23728C15.6009 1.12358 15.5062 1.0292 15.3922 0.96357C15.2783 0.897941 15.1491 0.86336 15.0176 0.863281H2.96777C2.83627 0.863361 2.70709 0.897943 2.59313 0.963571C2.47917 1.0292 2.38443 1.12358 2.31836 1.23728L0.310551 4.70506C0.244866 4.8195 0.210193 4.94911 0.209961 5.08106V6.34568C0.209918 6.41978 0.220778 6.49349 0.242191 6.56443C0.351219 6.93557 0.535804 7.28015 0.784357 7.57655C1.03291 7.87295 1.34006 8.11475 1.68652 8.28678V16.5303C1.68657 16.7291 1.76561 16.9199 1.90625 17.0605C2.04689 17.2012 2.23762 17.2802 2.43652 17.2803H15.5488C15.7477 17.2802 15.9385 17.2012 16.0791 17.0605C16.2197 16.9199 16.2988 16.7291 16.2988 16.5303V8.28666C16.6453 8.11469 16.9525 7.87292 17.201 7.57654C17.4496 7.28015 17.6342 6.93557 17.7432 6.56443C17.7646 6.49349 17.7754 6.41978 17.7754 6.34568V5.08103C17.7752 4.94908 17.7405 4.81947 17.6748 4.70503L15.667 1.23728ZM16.2754 5.28221V6.22264C16.1793 6.47443 16.0093 6.6913 15.7878 6.84482C15.5662 6.99835 15.3035 7.08137 15.034 7.083C14.7645 7.08464 14.5008 7.00481 14.2774 6.85399C14.054 6.70316 13.8814 6.48837 13.7822 6.23777V5.46677C13.7821 5.39745 13.7726 5.32846 13.7539 5.26169L12.9319 2.36325H14.5849L16.2754 5.28221ZM3.18652 11.2363V8.56217C3.85909 8.52337 4.49489 8.24251 4.97652 7.77146C5.24081 8.03264 5.55425 8.23883 5.89872 8.37812C6.24319 8.51741 6.61186 8.58704 6.9834 8.58298H6.9844C7.70462 8.58867 8.39957 8.31783 8.926 7.82627C8.94925 7.82847 8.96933 7.83982 8.99313 7.83982C9.01693 7.83982 9.03702 7.82841 9.06021 7.82627C9.44824 8.1908 9.93325 8.43557 10.457 8.53117V11.2363H3.18652ZM8.24316 2.36326V6.19114C8.15369 6.44786 7.98767 6.67097 7.76747 6.83041C7.54727 6.98985 7.28349 7.07794 7.01167 7.08282C6.73986 7.08769 6.47308 7.00911 6.24731 6.85768C6.02153 6.70624 5.84762 6.48922 5.749 6.23588V5.57127L6.65892 2.36327L8.24316 2.36326ZM11.3723 2.36326L12.2822 5.57126V6.14444C12.1983 6.41252 12.0322 6.64739 11.8073 6.81579C11.5825 6.9842 11.3104 7.07759 11.0295 7.08276C10.7487 7.08792 10.4733 7.00459 10.2424 6.84457C10.0116 6.68454 9.83689 6.45594 9.74316 6.19113V2.36326H11.3723ZM11.957 8.41441C12.3518 8.28264 12.7115 8.06278 13.0088 7.77146C13.4904 8.24249 14.1262 8.52336 14.7988 8.56224V11.2363H11.957V8.41441ZM1.71 5.28221L3.40039 2.36326H5.0993L4.2773 5.2617C4.25868 5.32848 4.24916 5.39746 4.249 5.46678V6.1464C4.16709 6.42105 3.99748 6.66132 3.76611 6.83045C3.53473 6.99959 3.25433 7.08829 2.96777 7.08298C2.69455 7.08882 2.42635 7.00899 2.20079 6.8547C1.97522 6.70041 1.80361 6.4794 1.71 6.22264V5.28221ZM3.18656 15.7802V12.7363H14.7988V15.7803L3.18656 15.7802Z" fill="white"/>
</g>
<defs>
<clipPath id="clip0_1188_4888">
<rect width="18" height="18" fill="white"/>
</clipPath>
</defs>
</svg>
