<svg width="156" height="24" viewBox="0 0 156 24" fill="none" xmlns="http://www.w3.org/2000/svg">
<path fill-rule="evenodd" clip-rule="evenodd" d="M25.3651 0H21.71V18.4073H25.3651V0ZM17.1963 0.726592C18.3633 0.726592 19.3101 1.67338 19.3101 2.84035C19.3101 4.00732 18.3633 4.95411 17.1963 4.95411C16.0294 4.95411 15.0826 4.00732 15.0826 2.84035C15.0826 1.67338 16.0294 0.726592 17.1963 0.726592ZM15.3688 6.58346H19.0238V18.4293H15.3688V6.58346ZM0 1.16695H6.42935C9.44585 1.16695 12.7266 1.80548 12.7266 5.5486C12.7266 7.46419 11.5376 8.78529 9.75411 9.35776V9.4018C12.022 9.68804 13.5192 11.3834 13.5192 13.6073C13.5192 17.2183 10.1064 18.4073 7.04586 18.4073H0V1.16695ZM3.80917 8.05868H6.56145C7.72842 8.05868 8.93943 7.57428 8.93943 6.18713C8.93943 4.75594 7.5743 4.38163 6.38531 4.38163H3.80917V8.05868ZM3.80917 15.1926H7.222C8.41099 15.1926 9.75411 14.6862 9.75411 13.1669C9.75411 11.5376 7.92659 11.2734 6.69356 11.2734H3.83118L3.80917 15.1926ZM28.0293 0H31.6844V18.4073H28.0293V0ZM38.0256 6.58353H34.6568V24H38.3119V17.1743H38.3559C39.1706 18.3193 40.5798 18.7376 42.099 18.7376C45.4678 18.7376 47.5155 15.6991 47.5155 12.4184C47.5155 8.8294 45.2036 6.29729 41.7027 6.29729C40.0513 6.29729 38.6201 7.28811 38.0697 8.14683H38.0256V6.58353ZM43.8825 12.4844C43.8825 14.2679 42.7816 15.4789 40.9541 15.4789C39.1266 15.4789 38.0256 14.2679 38.0256 12.4844C38.0256 10.701 39.1266 9.48994 40.9541 9.48994C42.7816 9.48994 43.8825 10.701 43.8825 12.4844ZM49.7173 0H53.3724V18.4073H49.7173V0ZM61.6733 9.48994L55.5302 14.7523V18.4074H66.0549V15.4789H59.4935L65.9228 10.0844V6.58352H55.6843V9.48994H61.6733Z" fill="#3784F4"/>
<path d="M75.2832 18.4499H73.4999L78.6577 4.04997H80.4136L85.5715 18.4499H83.7882L79.5905 6.32809H79.4808L75.2832 18.4499ZM75.9416 12.825H83.1297V14.3718H75.9416V12.825Z" fill="#202D41"/>
<path d="M89.1587 11.9531V18.4499H87.54V7.64997H89.1038V9.33746H89.241C89.4879 8.78903 89.8628 8.3484 90.3658 8.01559C90.8688 7.67809 91.5181 7.50934 92.3137 7.50934C93.027 7.50934 93.6512 7.65934 94.1862 7.95934C94.7212 8.25465 95.1373 8.70465 95.4345 9.30934C95.7317 9.90934 95.8803 10.6687 95.8803 11.5875V18.4499H94.2616V11.7C94.2616 10.8515 94.0467 10.1906 93.6169 9.71715C93.1871 9.23903 92.5972 8.99996 91.8473 8.99996C91.3306 8.99996 90.8688 9.11481 90.4618 9.34449C90.0595 9.57418 89.7417 9.90934 89.5085 10.35C89.2753 10.7906 89.1587 11.325 89.1587 11.9531Z" fill="#202D41"/>
<path d="M101.938 18.7031C101.271 18.7031 100.665 18.5742 100.121 18.3164C99.5767 18.0539 99.1446 17.6765 98.8245 17.1843C98.5044 16.6875 98.3444 16.0875 98.3444 15.3843C98.3444 14.7656 98.4633 14.264 98.701 13.8796C98.9388 13.4906 99.2566 13.1859 99.6544 12.9656C100.052 12.7453 100.491 12.5812 100.971 12.4734C101.456 12.3609 101.943 12.2718 102.432 12.2062C103.072 12.1218 103.591 12.0586 103.989 12.0164C104.392 11.9695 104.684 11.8921 104.867 11.7843C105.055 11.6765 105.148 11.489 105.148 11.2218V11.1656C105.148 10.4718 104.963 9.93278 104.593 9.5484C104.227 9.16403 103.671 8.97184 102.926 8.97184C102.153 8.97184 101.547 9.14528 101.109 9.49215C100.67 9.83903 100.361 10.2093 100.183 10.6031L98.6462 10.0406C98.9205 9.38434 99.2863 8.8734 99.7436 8.50778C100.205 8.13747 100.708 7.87965 101.253 7.73434C101.801 7.58434 102.341 7.50934 102.871 7.50934C103.21 7.50934 103.598 7.55153 104.037 7.6359C104.481 7.71559 104.908 7.882 105.32 8.13512C105.736 8.38825 106.081 8.77028 106.356 9.28121C106.63 9.79215 106.767 10.4765 106.767 11.3343V18.4499H105.148V16.9874H105.066C104.956 17.2218 104.773 17.4726 104.517 17.7398C104.261 18.007 103.921 18.2343 103.495 18.4218C103.07 18.6093 102.551 18.7031 101.938 18.7031ZM102.185 17.2124C102.826 17.2124 103.365 17.0835 103.804 16.8257C104.248 16.5679 104.581 16.2351 104.805 15.8273C105.034 15.4195 105.148 14.9906 105.148 14.5406V13.0218C105.08 13.1062 104.929 13.1835 104.696 13.2539C104.467 13.3195 104.202 13.3781 103.9 13.4296C103.603 13.4765 103.312 13.5187 103.029 13.5562C102.75 13.589 102.524 13.6171 102.35 13.6406C101.929 13.6968 101.536 13.7882 101.17 13.9148C100.809 14.0367 100.516 14.2218 100.292 14.4703C100.073 14.714 99.9631 15.0468 99.9631 15.4687C99.9631 16.0453 100.171 16.4812 100.587 16.7765C101.008 17.0671 101.541 17.2124 102.185 17.2124Z" fill="#202D41"/>
<path d="M111.34 4.04997V18.4499H109.722V4.04997H111.34Z" fill="#202D41"/>
<path d="M115.347 22.4999C115.073 22.4999 114.829 22.4765 114.614 22.4296C114.399 22.3874 114.25 22.3453 114.168 22.3031L114.579 20.8406C114.973 20.9437 115.32 20.9812 115.622 20.9531C115.924 20.9249 116.191 20.7867 116.424 20.5382C116.662 20.2945 116.879 19.8984 117.076 19.3499L117.378 18.5062L113.482 7.64997H115.238L118.146 16.2562H118.256L121.164 7.64997H122.92L118.448 20.0249C118.247 20.5828 117.997 21.0445 117.7 21.4101C117.403 21.7804 117.058 22.0546 116.664 22.2328C116.276 22.4109 115.837 22.4999 115.347 22.4999Z" fill="#202D41"/>
<path d="M129.638 7.64997V9.05621H124.178V7.64997H129.638ZM125.77 5.06247H127.388V15.3562C127.388 15.825 127.455 16.1765 127.587 16.4109C127.724 16.6406 127.898 16.7953 128.108 16.875C128.323 16.95 128.55 16.9874 128.787 16.9874C128.966 16.9874 129.112 16.9781 129.226 16.9593C129.341 16.9359 129.432 16.9171 129.501 16.9031L129.83 18.3937C129.72 18.4359 129.567 18.4781 129.37 18.5203C129.174 18.5671 128.925 18.5906 128.623 18.5906C128.166 18.5906 127.717 18.4898 127.278 18.2882C126.844 18.0867 126.483 17.7796 126.195 17.3671C125.911 16.9546 125.77 16.4343 125.77 15.8062V5.06247Z" fill="#202D41"/>
<path d="M132.073 18.4499V7.64997H133.692V18.4499H132.073ZM132.896 5.84997C132.58 5.84997 132.308 5.73981 132.08 5.5195C131.856 5.29919 131.744 5.03435 131.744 4.72497C131.744 4.4156 131.856 4.15076 132.08 3.93044C132.308 3.71013 132.58 3.59998 132.896 3.59998C133.211 3.59998 133.481 3.71013 133.705 3.93044C133.934 4.15076 134.048 4.4156 134.048 4.72497C134.048 5.03435 133.934 5.29919 133.705 5.5195C133.481 5.73981 133.211 5.84997 132.896 5.84997Z" fill="#202D41"/>
<path d="M140.936 18.6749C139.949 18.6749 139.098 18.4359 138.385 17.9578C137.671 17.4796 137.123 16.821 136.739 15.982C136.354 15.1429 136.162 14.1843 136.162 13.1062C136.162 12.0093 136.359 11.0414 136.752 10.2023C137.15 9.35856 137.703 8.69997 138.412 8.22653C139.125 7.7484 139.958 7.50934 140.909 7.50934C141.649 7.50934 142.317 7.64997 142.912 7.93122C143.506 8.21247 143.993 8.60622 144.372 9.11246C144.752 9.61871 144.987 10.2093 145.079 10.8843H143.46C143.337 10.3921 143.062 9.95621 142.637 9.57653C142.216 9.19215 141.649 8.99996 140.936 8.99996C140.305 8.99996 139.752 9.16871 139.276 9.50621C138.805 9.83903 138.437 10.3101 138.172 10.9195C137.911 11.5242 137.781 12.2343 137.781 13.05C137.781 13.8843 137.909 14.6109 138.165 15.2296C138.426 15.8484 138.792 16.3289 139.263 16.671C139.738 17.0132 140.296 17.1843 140.936 17.1843C141.357 17.1843 141.739 17.1093 142.082 16.9593C142.425 16.8093 142.715 16.5937 142.953 16.3125C143.19 16.0312 143.36 15.6937 143.46 15.3H145.079C144.987 15.9375 144.761 16.5117 144.4 17.0226C144.043 17.5289 143.57 17.932 142.98 18.232C142.395 18.5273 141.714 18.6749 140.936 18.6749Z" fill="#202D41"/>
<path d="M154.908 10.0687L153.454 10.4906C153.362 10.2422 153.227 10.0007 153.049 9.76637C152.875 9.52731 152.637 9.33043 152.336 9.17575C152.034 9.02106 151.647 8.94371 151.176 8.94371C150.532 8.94371 149.994 9.09606 149.565 9.40075C149.139 9.70074 148.927 10.0828 148.927 10.5468C148.927 10.9593 149.073 11.2851 149.366 11.5242C149.658 11.7632 150.116 11.9625 150.737 12.1218L152.301 12.5156C153.243 12.75 153.945 13.1086 154.407 13.5914C154.869 14.0695 155.1 14.6859 155.1 15.4406C155.1 16.0593 154.926 16.6124 154.578 17.0999C154.236 17.5874 153.755 17.9718 153.138 18.2531C152.521 18.5343 151.803 18.6749 150.984 18.6749C149.91 18.6749 149.02 18.4359 148.316 17.9578C147.612 17.4796 147.166 16.7812 146.979 15.8625L148.515 15.4687C148.662 16.05 148.938 16.4859 149.345 16.7765C149.757 17.0671 150.294 17.2124 150.957 17.2124C151.711 17.2124 152.31 17.0484 152.754 16.7203C153.202 16.3875 153.426 15.989 153.426 15.525C153.426 15.15 153.298 14.8359 153.042 14.5828C152.786 14.325 152.393 14.1328 151.862 14.0062L150.106 13.5843C149.142 13.35 148.433 12.9867 147.98 12.4945C147.532 11.9976 147.308 11.3765 147.308 10.6312C147.308 10.0218 147.475 9.48278 147.809 9.01403C148.147 8.54528 148.607 8.17731 149.187 7.91012C149.773 7.64294 150.436 7.50934 151.176 7.50934C152.219 7.50934 153.037 7.74372 153.632 8.21247C154.231 8.68122 154.656 9.29996 154.908 10.0687Z" fill="#202D41"/>
</svg>
